<svg width="20" height="20" viewBox="0 0 20 20" fill="none" xmlns="http://www.w3.org/2000/svg">
<rect width="20" height="20" rx="2" fill="#3A8DFF"/>
<path d="M8.55457 11.861L13.5655 6.8738C13.6837 6.75611 13.8217 6.69727 13.9793 6.69727C14.137 6.69727 14.275 6.75611 14.3932 6.8738C14.5115 6.9915 14.5706 7.13136 14.5706 7.29338C14.5706 7.4554 14.5115 7.59507 14.3932 7.71237L8.96845 13.1262C8.85019 13.2439 8.71223 13.3028 8.55457 13.3028C8.3969 13.3028 8.25894 13.2439 8.14069 13.1262L5.59829 10.5958C5.48004 10.4781 5.42328 10.3385 5.42801 10.1769C5.43274 10.0152 5.49442 9.87536 5.61307 9.75728C5.73172 9.63919 5.87224 9.58034 6.03464 9.58074C6.19703 9.58113 6.33736 9.63998 6.45561 9.75728L8.55457 11.861Z" fill="white"/>
</svg>
