<svg width="18" height="18" viewBox="0 0 18 18" fill="none" xmlns="http://www.w3.org/2000/svg">
<path d="M15.1207 4.39231C12.9157 1.45531 8.34823 0.601057 5.09773 2.62231C1.88773 4.61731 0.707231 8.45506 2.02273 12.0551C3.26398 15.4548 6.53473 16.8011 8.89198 15.0911C9.77473 14.4506 10.1175 13.6473 10.2825 12.3431L10.362 11.6028L10.3957 11.3043C10.488 10.6038 10.629 10.2903 10.9245 10.1253C11.3257 9.90181 11.5935 9.89656 12.1207 10.1006L12.384 10.2101L12.5182 10.2686C13.2787 10.5986 13.7842 10.7148 14.424 10.5806L14.574 10.5453L14.697 10.5101C16.7887 9.86206 17.0985 7.02481 15.1207 4.39231ZM14.3827 9.42931L14.2905 9.45706L14.19 9.47956C13.8607 9.54481 13.5795 9.49081 13.1122 9.29806L12.6607 9.10531C11.7592 8.73556 11.172 8.70031 10.3762 9.14281C9.68848 9.52681 9.41998 10.1163 9.28348 11.1378L9.24373 11.4821L9.20248 11.8811L9.16723 12.1976C9.03823 13.2183 8.80348 13.7651 8.23123 14.1806C6.52498 15.4181 4.08073 14.4123 3.07873 11.6688C1.94173 8.55481 2.94823 5.28331 5.69173 3.57706C8.44798 1.86406 12.366 2.59756 14.2215 5.06731C15.7777 7.13956 15.5865 9.02731 14.3827 9.42931ZM5.96398 7.93381C5.99941 7.81382 6.01047 7.68796 5.9965 7.56363C5.98254 7.4393 5.94383 7.31903 5.88266 7.20989C5.82148 7.10076 5.73909 7.00497 5.64032 6.92818C5.54155 6.85139 5.42841 6.79514 5.30757 6.76275C5.18672 6.73036 5.06062 6.72249 4.93669 6.73959C4.81275 6.7567 4.69349 6.79844 4.58594 6.86235C4.47839 6.92626 4.38472 7.01105 4.31045 7.11173C4.23617 7.21241 4.1828 7.32693 4.15348 7.44856C4.09617 7.68628 4.134 7.93699 4.25893 8.14721C4.38385 8.35743 4.58596 8.51052 4.82216 8.57383C5.05836 8.63713 5.30995 8.60565 5.52326 8.48608C5.73657 8.36651 5.89472 8.16833 5.96398 7.93381ZM5.59348 10.5498C5.62534 10.4309 5.63347 10.3068 5.61739 10.1848C5.60132 10.0627 5.56135 9.94499 5.49979 9.83837C5.43822 9.73175 5.35626 9.63829 5.25858 9.56334C5.1609 9.48839 5.04941 9.43342 4.93048 9.40156C4.81155 9.3697 4.68751 9.36157 4.56544 9.37765C4.44337 9.39372 4.32567 9.43368 4.21904 9.49525C4.11242 9.55681 4.01896 9.63878 3.94401 9.73646C3.86907 9.83414 3.81409 9.94563 3.78223 10.0646C3.71788 10.3047 3.75158 10.5607 3.87592 10.776C4.00026 10.9913 4.20504 11.1485 4.44523 11.2128C4.68542 11.2772 4.94133 11.2435 5.15667 11.1191C5.372 10.9948 5.52913 10.79 5.59348 10.5498ZM7.44748 5.68156C7.51183 5.44137 7.47813 5.18546 7.35379 4.97012C7.22945 4.75478 7.02467 4.59766 6.78448 4.53331C6.54429 4.46896 6.28838 4.50266 6.07304 4.627C5.8577 4.75133 5.70058 4.95612 5.63623 5.19631C5.60437 5.31524 5.59624 5.43927 5.61232 5.56134C5.62839 5.68341 5.66835 5.80112 5.72992 5.90774C5.79148 6.01437 5.87345 6.10782 5.97113 6.18277C6.06881 6.25772 6.1803 6.3127 6.29923 6.34456C6.53942 6.40891 6.79533 6.3752 7.01067 6.25087C7.11729 6.1893 7.21075 6.10734 7.28569 6.00966C7.36064 5.91197 7.41562 5.80049 7.44748 5.68156ZM7.46848 12.4301C7.50391 12.3101 7.51497 12.1842 7.50101 12.0599C7.48704 11.9356 7.44833 11.8153 7.38716 11.7061C7.32598 11.597 7.24359 11.5012 7.14482 11.4244C7.04605 11.3476 6.93291 11.2914 6.81207 11.259C6.69122 11.2266 6.56512 11.2187 6.44118 11.2358C6.31725 11.2529 6.19799 11.2947 6.09044 11.3586C5.98289 11.4225 5.88922 11.5073 5.81495 11.608C5.74067 11.7087 5.6873 11.8232 5.65798 11.9448C5.60067 12.1825 5.6385 12.4332 5.76343 12.6435C5.88835 12.8537 6.09046 13.0068 6.32666 13.0701C6.56286 13.1334 6.81445 13.1019 7.02776 12.9823C7.24107 12.8628 7.39922 12.6646 7.46848 12.4301ZM10.0912 4.95256C10.1242 4.83325 10.1333 4.70859 10.1179 4.58576C10.1025 4.46293 10.0629 4.34438 10.0014 4.23693C9.9399 4.12949 9.85775 4.03529 9.75967 3.95976C9.66159 3.88423 9.54953 3.82888 9.42994 3.79689C9.31035 3.7649 9.18562 3.75691 9.06293 3.77338C8.94024 3.78986 8.82203 3.83046 8.71511 3.89286C8.6082 3.95526 8.5147 4.03822 8.44002 4.13694C8.36534 4.23566 8.31094 4.3482 8.27998 4.46806C8.21814 4.70745 8.25337 4.96157 8.378 5.17511C8.50263 5.38865 8.70657 5.54431 8.94542 5.6082C9.18427 5.6721 9.43869 5.63905 9.65329 5.51625C9.86789 5.39345 10.0253 5.19085 10.0912 4.95256Z" fill="#3A8DFF"/>
</svg>
