<svg width="18" height="18" viewBox="0 0 18 18" fill="none" xmlns="http://www.w3.org/2000/svg">
<rect width="18" height="18" fill="white"/>
<mask id="path-1-inside-1_564_5816" fill="white">
<path d="M5.67773 3C6.06835 3 6.26464 3.00052 6.43359 3.06348C6.58269 3.11921 6.71715 3.20937 6.82422 3.32715C6.94551 3.46069 7.0179 3.64289 7.16309 4.00586L7.44922 4.72266L14.2217 4.72266C15.3261 4.72286 16.2217 5.61821 16.2217 6.72266L16.2217 13.1826C16.2217 13.7348 15.7738 14.1824 15.2217 14.1826L3.46094 14.1826C2.90889 14.1824 2.46194 13.7347 2.46191 13.1826L2.46191 5.88574C2.46175 5.8275 2.46094 5.76577 2.46094 5.7002L2.46094 4.59961C2.46094 4.04 2.46048 3.75973 2.56934 3.5459C2.66515 3.35789 2.81886 3.20525 3.00684 3.10938C3.22066 3.00049 3.50097 3 4.06055 3L5.67773 3Z"/>
</mask>
<path d="M5.67773 3C6.06835 3 6.26464 3.00052 6.43359 3.06348C6.58269 3.11921 6.71715 3.20937 6.82422 3.32715C6.94551 3.46069 7.0179 3.64289 7.16309 4.00586L7.44922 4.72266L14.2217 4.72266C15.3261 4.72286 16.2217 5.61821 16.2217 6.72266L16.2217 13.1826C16.2217 13.7348 15.7738 14.1824 15.2217 14.1826L3.46094 14.1826C2.90889 14.1824 2.46194 13.7347 2.46191 13.1826L2.46191 5.88574C2.46175 5.8275 2.46094 5.76577 2.46094 5.7002L2.46094 4.59961C2.46094 4.04 2.46048 3.75973 2.56934 3.5459C2.66515 3.35789 2.81886 3.20525 3.00684 3.10938C3.22066 3.00049 3.50097 3 4.06055 3L5.67773 3Z" fill="white"/>
<path d="M5.67773 3L5.67773 2L5.67773 2L5.67773 3ZM6.43359 3.06348L6.78373 2.12678L6.78276 2.12642L6.43359 3.06348ZM6.82422 3.32715L7.56446 2.65481L7.56416 2.65448L6.82422 3.32715ZM7.16309 4.00586L8.09182 3.63512L8.09156 3.63447L7.16309 4.00586ZM7.44922 4.72266L6.52048 5.09339L6.77167 5.72266L7.44922 5.72266L7.44922 4.72266ZM14.2217 4.72266L14.2219 3.72266L14.2217 3.72266L14.2217 4.72266ZM16.2217 6.72266L17.2217 6.72266L16.2217 6.72266ZM16.2217 13.1826L17.2217 13.1827L17.2217 13.1826L16.2217 13.1826ZM15.2217 14.1826L15.2217 15.1826L15.222 15.1826L15.2217 14.1826ZM3.46094 14.1826L3.46046 15.1826L3.46094 15.1826L3.46094 14.1826ZM2.46191 13.1826L1.46191 13.1826L1.46191 13.1827L2.46191 13.1826ZM2.46191 5.88574L3.46192 5.88574L3.46191 5.88293L2.46191 5.88574ZM2.46094 5.7002L3.46094 5.7002L2.46094 5.7002ZM2.46094 4.59961L1.46094 4.59961L2.46094 4.59961ZM2.56934 3.5459L1.67836 3.09184L1.67817 3.09222L2.56934 3.5459ZM3.00684 3.10938L2.55305 2.21827L2.55249 2.21855L3.00684 3.10938ZM4.06055 3L4.06055 2L4.06055 2L4.06055 3ZM5.67773 3L5.67773 4C5.88523 4 5.9937 4.00064 6.07173 4.00588C6.13794 4.01033 6.12404 4.0153 6.08443 4.00054L6.43359 3.06348L6.78276 2.12642C6.4047 1.98555 5.99074 2 5.67773 2L5.67773 3ZM6.43359 3.06348L6.08345 4.00017L6.08427 3.99982L6.82422 3.32715L7.56416 2.65448C7.34783 2.41651 7.07884 2.23709 6.78373 2.12678L6.43359 3.06348ZM6.82422 3.32715L6.08398 3.99949C6.05455 3.96709 6.05356 3.95123 6.08236 4.01151C6.1164 4.08276 6.15699 4.1832 6.23461 4.37725L7.16309 4.00586L8.09156 3.63447C7.97685 3.34768 7.83654 2.95436 7.56446 2.65481L6.82422 3.32715ZM7.16309 4.00586L6.23435 4.3766L6.52048 5.09339L7.44922 4.72266L8.37796 4.35192L8.09182 3.63512L7.16309 4.00586ZM7.44922 4.72266L7.44922 5.72266L14.2217 5.72266L14.2217 4.72266L14.2217 3.72266L7.44922 3.72266L7.44922 4.72266ZM14.2217 4.72266L14.2215 5.72266C14.7739 5.72276 15.2217 6.17068 15.2217 6.72266L16.2217 6.72266L17.2217 6.72266C17.2217 5.06575 15.8782 3.72296 14.2219 3.72266L14.2217 4.72266ZM16.2217 6.72266L15.2217 6.72266L15.2217 13.1826L16.2217 13.1826L17.2217 13.1826L17.2217 6.72266L16.2217 6.72266ZM16.2217 13.1826L15.2217 13.1826L15.2213 13.1826L15.2217 14.1826L15.222 15.1826C16.3258 15.1822 17.2216 14.2874 17.2217 13.1827L16.2217 13.1826ZM15.2217 14.1826L15.2217 13.1826L3.46094 13.1826L3.46094 14.1826L3.46094 15.1826L15.2217 15.1826L15.2217 14.1826ZM3.46094 14.1826L3.46141 13.1826L3.46191 13.1826L2.46191 13.1826L1.46191 13.1827C1.46196 14.2862 2.35566 15.1821 3.46046 15.1826L3.46094 14.1826ZM2.46191 13.1826L3.46191 13.1826L3.46191 5.88574L2.46191 5.88574L1.46191 5.88574L1.46191 13.1826L2.46191 13.1826ZM2.46191 5.88574L3.46191 5.88293C3.46168 5.8017 3.46094 5.77321 3.46094 5.7002L2.46094 5.7002L1.46094 5.7002C1.46094 5.75833 1.46182 5.8533 1.46192 5.88855L2.46191 5.88574ZM2.46094 5.7002L3.46094 5.7002L3.46094 4.59961L2.46094 4.59961L1.46094 4.59961L1.46094 5.7002L2.46094 5.7002ZM2.46094 4.59961L3.46094 4.59961C3.46094 4.3029 3.4616 4.14067 3.47106 4.02374C3.47958 3.9184 3.49005 3.94153 3.4605 3.99958L2.56934 3.5459L1.67817 3.09222C1.53976 3.3641 1.49603 3.63428 1.47757 3.86244C1.46005 4.07901 1.46094 4.33671 1.46094 4.59961L2.46094 4.59961ZM2.56934 3.5459L3.46031 3.99996L3.46118 4.0002L3.00684 3.10938L2.55249 2.21855C2.17891 2.40909 1.8712 2.71346 1.67836 3.09184L2.56934 3.5459ZM3.00684 3.10938L3.46062 4.00048C3.40353 4.02956 3.38125 4.01912 3.48611 4.01048C3.60245 4.0009 3.76474 4 4.06055 4L4.06055 3L4.06055 2C3.79677 2 3.53912 1.99934 3.32196 2.01723C3.09331 2.03606 2.82397 2.0803 2.55305 2.21827L3.00684 3.10938ZM4.06055 3L4.06055 4L5.67773 4L5.67773 3L5.67773 2L4.06055 2L4.06055 3Z" fill="#3A8DFF" mask="url(#path-1-inside-1_564_5816)"/>
</svg>
