<svg width="18" height="18" viewBox="0 0 18 18" fill="none" xmlns="http://www.w3.org/2000/svg">
<path d="M12.75 2.25C13.3239 2.24997 13.8761 2.46924 14.2937 2.86296C14.7113 3.25668 14.9626 3.79508 14.9963 4.368L15 4.5V7.7625L15.4455 7.5645C15.906 7.35975 16.437 7.677 16.4955 8.163L16.5 8.25V14.25C16.5001 14.6284 16.3572 14.9929 16.0999 15.2704C15.8426 15.5479 15.4899 15.7179 15.1125 15.7463L15 15.75H3C2.62157 15.7501 2.25708 15.6072 1.97959 15.3499C1.7021 15.0926 1.53213 14.7399 1.50375 14.3625L1.5 14.25V8.25C1.5 7.746 2.00625 7.38975 2.47275 7.53375L2.55525 7.5645L3 7.7625V4.5C2.99997 3.92609 3.21924 3.37386 3.61296 2.9563C4.00668 2.53874 4.54508 2.28742 5.118 2.25375L5.25 2.25H12.75ZM12.75 3.75H5.25C5.05109 3.75 4.86032 3.82902 4.71967 3.96967C4.57902 4.11032 4.5 4.30109 4.5 4.5V8.42925L9 10.4295L13.5 8.42925V4.5C13.5 4.30109 13.421 4.11032 13.2803 3.96967C13.1397 3.82902 12.9489 3.75 12.75 3.75ZM9 6C9.19116 6.00021 9.37502 6.07341 9.51403 6.20464C9.65303 6.33586 9.73668 6.51521 9.74788 6.70605C9.75908 6.89688 9.69699 7.08478 9.5743 7.23137C9.45161 7.37796 9.27757 7.47217 9.08775 7.49475L9 7.5H7.5C7.30884 7.49979 7.12498 7.42659 6.98597 7.29536C6.84697 7.16414 6.76332 6.98479 6.75212 6.79395C6.74092 6.60312 6.80301 6.41522 6.9257 6.26863C7.04839 6.12204 7.22243 6.02783 7.41225 6.00525L7.5 6H9Z" fill="#3A8DFF"/>
</svg>
