<svg width="18" height="18" viewBox="0 0 18 18" fill="none" xmlns="http://www.w3.org/2000/svg">
<rect width="18" height="18" fill="#EBF4FF"/>
<path d="M7.10397 11.0356L13.6808 4.24053C13.836 4.08018 14.017 4 14.224 4C14.4309 4 14.612 4.08018 14.7672 4.24053C14.9224 4.40089 15 4.59145 15 4.8122C15 5.03296 14.9224 5.22325 14.7672 5.38307L7.64718 12.7595C7.49198 12.9198 7.31091 13 7.10397 13C6.89703 13 6.71596 12.9198 6.56075 12.7595L3.22385 9.3118C3.06865 9.15145 2.99415 8.96116 3.00036 8.74094C3.00657 8.52071 3.08753 8.33016 3.24325 8.16926C3.39898 8.00837 3.58341 7.9282 3.79656 7.92873C4.00971 7.92926 4.19388 8.00944 4.34909 8.16926L7.10397 11.0356Z" fill="#3A8DFF"/>
</svg>
